<svg xmlns="http://www.w3.org/2000/svg" xmlns:xlink="http://www.w3.org/1999/xlink" version="1.1" width="436" height="174"><defs/><g transform=" scale(0.5) translate(-402,-296)"><rect x="738" y="358" width="4" height="4" fill="#ffffff" stroke="none" pointer-events="none"/><rect x="598" y="338" width="4" height="4" fill="#ffffff" stroke="none" pointer-events="none"/><rect x="598" y="378" width="4" height="4" fill="#ffffff" stroke="none" pointer-events="none"/><ellipse cx="721" cy="360" rx="4.96" ry="4.96" fill="#222222" stroke="#ffffff" stroke-width="4" pointer-events="none"/><path d="M 728 360 L 738 360" fill="none" stroke="#ffffff" stroke-width="4" stroke-linecap="square" stroke-miterlimit="10" pointer-events="none"/><path d="M 602 340 L 634 340" fill="none" stroke="#ffffff" stroke-width="4" stroke-linecap="square" stroke-miterlimit="10" pointer-events="none"/><path d="M 602 380 L 634 380" fill="none" stroke="#ffffff" stroke-width="4" stroke-linecap="square" stroke-miterlimit="10" pointer-events="none"/><path d="M 639.64 319.64 C 670.28 319.54 692.8 320 717.22 359.72 C 698.72 395.44 674.68 401.2 639.64 400.38" fill="#222222" stroke="#ffffff" stroke-width="3.28" stroke-linejoin="round" stroke-linecap="round" stroke-miterlimit="10" pointer-events="none"/><path d="M 630.16 319.82 C 642.64 346.24 643.9 373 630.16 400.18" fill="none" stroke="#ffffff" stroke-width="4" stroke-linejoin="round" stroke-linecap="round" stroke-miterlimit="10" pointer-events="none"/><path d="M 640 319.82 C 652.46 346.24 653.74 373 640 400.18" fill="none" stroke="#ffffff" stroke-width="4" stroke-linejoin="round" stroke-linecap="round" stroke-miterlimit="10" pointer-events="none"/><rect x="978" y="378" width="4" height="4" fill="#ffffff" stroke="none" pointer-events="none"/><rect x="838" y="358" width="4" height="4" fill="#ffffff" stroke="none" pointer-events="none"/><rect x="838" y="398" width="4" height="4" fill="#ffffff" stroke="none" pointer-events="none"/><ellipse cx="961" cy="380" rx="4.96" ry="4.96" fill="#222222" stroke="#ffffff" stroke-width="4" pointer-events="none"/><path d="M 968 380 L 978 380" fill="none" stroke="#ffffff" stroke-width="4" stroke-linecap="square" stroke-miterlimit="10" pointer-events="none"/><path d="M 842 360 L 874 360" fill="none" stroke="#ffffff" stroke-width="4" stroke-linecap="square" stroke-miterlimit="10" pointer-events="none"/><path d="M 842 400 L 874 400" fill="none" stroke="#ffffff" stroke-width="4" stroke-linecap="square" stroke-miterlimit="10" pointer-events="none"/><path d="M 879.64 339.64 C 910.28 339.54 932.8 340 957.22 379.72 C 938.72 415.44 914.68 421.2 879.64 420.38" fill="#222222" stroke="#ffffff" stroke-width="3.28" stroke-linejoin="round" stroke-linecap="round" stroke-miterlimit="10" pointer-events="none"/><path d="M 870.16 339.82 C 882.64 366.24 883.9 393 870.16 420.18" fill="none" stroke="#ffffff" stroke-width="4" stroke-linejoin="round" stroke-linecap="round" stroke-miterlimit="10" pointer-events="none"/><path d="M 880 339.82 C 892.46 366.24 893.74 393 880 420.18" fill="none" stroke="#ffffff" stroke-width="4" stroke-linejoin="round" stroke-linecap="round" stroke-miterlimit="10" pointer-events="none"/><rect x="1138" y="538" width="4" height="4" fill="#ffffff" stroke="none" pointer-events="none"/><rect x="998" y="558" width="4" height="4" fill="#ffffff" stroke="none" pointer-events="none"/><rect x="998" y="518" width="4" height="4" fill="#ffffff" stroke="none" pointer-events="none"/><path d="M 1112 540 L 1138 540" fill="none" stroke="#ffffff" stroke-width="4" stroke-linecap="square" stroke-miterlimit="10" pointer-events="none"/><path d="M 1029.98 499.62 C 1059.78 499.52 1089.48 499.96 1113.24 539.72 C 1095.24 575.46 1064.06 581.22 1029.98 580.4" fill="#222222" stroke="#ffffff" stroke-width="4" stroke-linejoin="round" stroke-linecap="round" stroke-miterlimit="10" pointer-events="none"/><path d="M 1002 560 L 1034 560" fill="none" stroke="#ffffff" stroke-width="4" stroke-linecap="square" stroke-miterlimit="10" pointer-events="none"/><path d="M 1002 520 L 1034 520" fill="none" stroke="#ffffff" stroke-width="4" stroke-linecap="square" stroke-miterlimit="10" pointer-events="none"/><path d="M 1030.18 499.82 C 1042.86 526.24 1044.14 553 1030.18 580.18" fill="none" stroke="#ffffff" stroke-width="4" stroke-linejoin="round" stroke-linecap="round" stroke-miterlimit="10" pointer-events="none"/><rect x="598" y="558" width="4" height="4" fill="#ffffff" stroke="none" pointer-events="none"/><rect x="598" y="598" width="4" height="4" fill="#ffffff" stroke="none" pointer-events="none"/><rect x="738" y="578" width="4" height="4" fill="#ffffff" stroke="none" pointer-events="none"/><path d="M 602 560 L 630 560" fill="none" stroke="#ffffff" stroke-width="4" stroke-linecap="square" stroke-miterlimit="10" pointer-events="none"/><path d="M 602 600 L 630 600" fill="none" stroke="#ffffff" stroke-width="4" stroke-linecap="square" stroke-miterlimit="10" pointer-events="none"/><path d="M 642.08 539.42 L 629.56 539.44 C 629.58 564.34 629.7 589.62 629.72 620.44 L 641.88 620.62 C 662.06 620.56 678.18 622 691.22 615.06 C 702.5 609.06 712.16 596.64 712.1 580.28 C 712.02 563.4 702.56 552.46 690.26 545.06 C 678.26 537.84 661.94 539.46 642.08 539.42 Z" fill="#222222" stroke="#ffffff" stroke-width="3.24" stroke-linejoin="round" stroke-linecap="round" stroke-miterlimit="10" pointer-events="none"/><path d="M 714 580 L 738 580" fill="none" stroke="#ffffff" stroke-width="4" stroke-linecap="square" stroke-miterlimit="10" pointer-events="none"/><rect x="838" y="498" width="4" height="4" fill="#ffffff" stroke="none" pointer-events="none"/><rect x="838" y="538" width="4" height="4" fill="#ffffff" stroke="none" pointer-events="none"/><rect x="978" y="518" width="4" height="4" fill="#ffffff" stroke="none" pointer-events="none"/><path d="M 842 500 L 870 500" fill="none" stroke="#ffffff" stroke-width="4" stroke-linecap="square" stroke-miterlimit="10" pointer-events="none"/><path d="M 842 540 L 870 540" fill="none" stroke="#ffffff" stroke-width="4" stroke-linecap="square" stroke-miterlimit="10" pointer-events="none"/><path d="M 882.08 479.42 L 869.56 479.44 C 869.58 504.34 869.7 529.62 869.72 560.44 L 881.88 560.62 C 902.06 560.56 918.18 562 931.22 555.06 C 942.5 549.06 952.16 536.64 952.1 520.28 C 952.02 503.4 942.56 492.46 930.26 485.06 C 918.26 477.84 901.94 479.46 882.08 479.42 Z" fill="#222222" stroke="#ffffff" stroke-width="3.24" stroke-linejoin="round" stroke-linecap="round" stroke-miterlimit="10" pointer-events="none"/><path d="M 954 520 L 978 520" fill="none" stroke="#ffffff" stroke-width="4" stroke-linecap="square" stroke-miterlimit="10" pointer-events="none"/><rect x="458" y="338" width="4" height="4" fill="#ffffff" stroke="none" pointer-events="none"/><ellipse cx="460" cy="320" rx="8.27" ry="8.27" fill="#222222" stroke="#ffffff" stroke-width="4" pointer-events="none"/><path d="M 460 330 L 460 338" fill="#222222" stroke="#ffffff" stroke-width="4" stroke-linecap="square" stroke-miterlimit="10" pointer-events="none"/><rect x="426" y="326" width="14" height="26" fill-opacity="0" fill="#dae2f2" stroke="none" pointer-events="none"/><g fill="#ffffff" font-family="Arial,Helvetica" font-weight="bold" text-anchor="middle" font-size="24px"><text x="433" y="347">A</text></g><rect x="458" y="378" width="4" height="4" fill="#ffffff" stroke="none" pointer-events="none"/><ellipse cx="460" cy="360" rx="8.27" ry="8.27" fill="#222222" stroke="#ffffff" stroke-width="4" pointer-events="none"/><path d="M 460 370 L 460 378" fill="#222222" stroke="#ffffff" stroke-width="4" stroke-linecap="square" stroke-miterlimit="10" pointer-events="none"/><rect x="426" y="366" width="16" height="28" fill-opacity="0" fill="#dae2f2" stroke="none" pointer-events="none"/><g fill="#ffffff" font-family="Arial,Helvetica" font-weight="bold" text-anchor="middle" font-size="24px"><text x="434" y="388">B</text></g><rect x="458" y="478" width="4" height="4" fill="#ffffff" stroke="none" pointer-events="none"/><ellipse cx="460" cy="460" rx="8.27" ry="8.27" fill="#222222" stroke="#ffffff" stroke-width="4" pointer-events="none"/><path d="M 460 470 L 460 478" fill="#222222" stroke="#ffffff" stroke-width="4" stroke-linecap="square" stroke-miterlimit="10" pointer-events="none"/><rect x="406" y="466" width="34" height="26" fill-opacity="0" fill="#dae2f2" stroke="none" pointer-events="none"/><g fill="#ffffff" font-family="Arial,Helvetica" font-weight="bold" text-anchor="middle" font-size="24px"><text x="423" y="487">Cin</text></g><rect x="1198" y="378" width="4" height="4" fill="#ffffff" stroke="none" pointer-events="none"/><ellipse cx="1200" cy="360" rx="8.27" ry="8.27" fill="#222222" stroke="#ffffff" stroke-width="4" pointer-events="none"/><path d="M 1200 370 L 1200 378" fill="#222222" stroke="#ffffff" stroke-width="4" stroke-linecap="square" stroke-miterlimit="10" pointer-events="none"/><rect x="1220" y="360" width="14" height="26" fill-opacity="0" fill="#dae2f2" stroke="none" pointer-events="none"/><g fill="#ffffff" font-family="Arial,Helvetica" font-weight="bold" text-anchor="middle" font-size="24px"><text x="1227" y="381">S</text></g><rect x="1198" y="538" width="4" height="4" fill="#ffffff" stroke="none" pointer-events="none"/><ellipse cx="1200" cy="520" rx="8.27" ry="8.27" fill="#222222" stroke="#ffffff" stroke-width="4" pointer-events="none"/><path d="M 1200 530 L 1200 538" fill="#222222" stroke="#ffffff" stroke-width="4" stroke-linecap="square" stroke-miterlimit="10" pointer-events="none"/><rect x="1220" y="520" width="50" height="28" fill-opacity="0" fill="#dae2f2" stroke="none" pointer-events="none"/><g fill="#ffffff" font-family="Arial,Helvetica" font-weight="bold" text-anchor="middle" font-size="24px"><text x="1245" y="542">Cout</text></g><path d="M 460 340 L 600 340" fill="none" stroke="#ffffff" stroke-width="4" stroke-miterlimit="10" pointer-events="none"/><path d="M 460 380 L 600 380" fill="none" stroke="#ffffff" stroke-width="4" stroke-miterlimit="10" pointer-events="none"/><path d="M 740 360 L 840 360" fill="none" stroke="#ffffff" stroke-width="4" stroke-miterlimit="10" pointer-events="none"/><path d="M 740 580 L 1000 580 L 1000 560" fill="none" stroke="#ffffff" stroke-width="4" stroke-miterlimit="10" pointer-events="none"/><path d="M 980 520 L 1000 520" fill="none" stroke="#ffffff" stroke-width="4" stroke-miterlimit="10" pointer-events="none"/><path d="M 1140 540 L 1200 540" fill="none" stroke="#ffffff" stroke-width="4" stroke-miterlimit="10" pointer-events="none"/><path d="M 600 560 L 600 340" fill="none" stroke="#ffffff" stroke-width="4" stroke-miterlimit="10" pointer-events="none"/><path d="M 600 600 L 560 600 L 560 384" fill="none" stroke="#ffffff" stroke-width="4" stroke-miterlimit="10" pointer-events="none"/><ellipse cx="560" cy="380" rx="4" ry="4" fill="#ffffff" stroke="#ffffff" stroke-width="4" pointer-events="none"/><path d="M 980 380 L 1200 380" fill="none" stroke="#ffffff" stroke-width="4" stroke-miterlimit="10" pointer-events="none"/><path d="M 840 500 L 820 500 L 820 364" fill="none" stroke="#ffffff" stroke-width="4" stroke-miterlimit="10" pointer-events="none"/><ellipse cx="820" cy="360" rx="4" ry="4" fill="#ffffff" stroke="#ffffff" stroke-width="4" pointer-events="none"/><path d="M 840 540 L 780 540 L 780 400 L 840 400" fill="none" stroke="#ffffff" stroke-width="4" stroke-miterlimit="10" pointer-events="none"/><path d="M 460 480 L 620 480 L 776 480" fill="none" stroke="#ffffff" stroke-width="4" stroke-miterlimit="10" pointer-events="none"/><ellipse cx="780" cy="480" rx="4" ry="4" fill="#ffffff" stroke="#ffffff" stroke-width="4" pointer-events="none"/></g></svg>