<?xml version="1.0" encoding="utf-8"?>
<!-- Generator: Adobe Illustrator 23.0.6, SVG Export Plug-In . SVG Version: 6.00 Build 0)  -->
<svg version="1.1" id="Layer_1" xmlns="http://www.w3.org/2000/svg" xmlns:xlink="http://www.w3.org/1999/xlink" x="0px" y="0px"
	 viewBox="0 0 200 200" xml:space="preserve">
<style type="text/css">
	.st0{clip-path:url(#SVGID_2_);}
	.st35{fill:none;stroke:#FFFFFF;stroke-width:8.1497;stroke-miterlimit:10;}
	.st36{fill:none;stroke:#FFFFFF;stroke-width:6.1122;stroke-miterlimit:10;}
	.st37{fill:#FFFFFF;stroke:#FFFFFF;stroke-width:1.0205;stroke-miterlimit:10;}
	.st38{fill:#FFFFFF;stroke:#FFFFFF;stroke-width:3.0561;stroke-miterlimit:10;}
	.st39{clip-path:url(#SVGID_4_);}
	.st40{clip-path:url(#SVGID_6_);}
	.st41{fill:#FFFFFF;}
</style>
<g>
	<defs>
		<rect id="SVGID_3_" x="0" width="200" height="200"/>
	</defs>
	<clipPath id="SVGID_2_">
		<use xlink:href="#SVGID_3_"  style="overflow:visible;"/>
	</clipPath>
	<g class="st0">
		<defs>
			<rect id="SVGID_5_" x="-162.4" y="-48.6" width="918.3" height="292.7"/>
		</defs>
		<clipPath id="SVGID_4_">
			<use xlink:href="#SVGID_5_"  style="overflow:visible;"/>
		</clipPath>
		<g class="st39">

			<g>
				<g>
					<g>
						<path class="st41" d="M104.1,187.8c-1,0-2-0.2-2.9-0.7l-72-36.2c-2-1-3.4-3-3.6-5.3l-6.1-80.1c-0.2-2.3,0.9-4.5,2.8-5.8
							L91,12.7v0c2.4-1.6,5.4-1.9,8-0.6l69.8,33.1c2,1,3.5,3,3.7,5.2l8.1,80.8c0.2,2.3-0.8,4.6-2.7,5.9l-70.1,49.4
							C106.8,187.4,105.5,187.8,104.1,187.8z M34.4,143.6l69.5,34.9l67.7-47.8l-7.8-78.1L95.7,20.4L28.6,66.2L34.4,143.6z"/>
					</g>
					<g>
						<path class="st41" d="M32.6,145.8l-6.1-2.6l35.5-82.7l-37.4,6.6l-1.2-6.6l43.3-7.6c0.3,0,0.5-0.1,0.8-0.1l95.7-5.6
							c2.3-0.1,4.5,0.9,5.9,2.7c1.4,1.8,1.8,4.3,1.1,6.5l-22.6,66.8c-0.8,2.3-2.6,4-4.9,4.5c-2.3,0.6-4.7-0.1-6.5-1.7L68.9,62.1
							c0,0-0.1-0.1-0.3-0.1c-0.2,0-0.2,0.1-0.2,0.2L32.6,145.8z M75.3,59l65.5,62.1c0,0,0.1,0.1,0.3,0.1c0.2,0,0.2-0.2,0.2-0.2
							l22.6-66.8c0,0,0.1-0.2,0-0.3c-0.1-0.1-0.2-0.1-0.3-0.1L75.3,59z"/>
					</g>
					<g>
						
							<rect x="54.5" y="33.2" transform="matrix(0.5823 -0.813 0.813 0.5823 3.3843 79.6031)" class="st41" width="49.4" height="6.7"/>
					</g>
					<g>
						<polygon class="st41" points="33.6,149.1 33.4,142.4 75.3,141.2 141.3,123 173.5,129.7 172.1,136.2 141.5,129.9 76.3,147.8 
													"/>
					</g>
					<g>
						<polygon class="st41" points="71,141.7 63.3,61.9 69.9,61.3 77.6,141.1 						"/>
					</g>
					<g>
						
							<rect x="87.5" y="139.5" transform="matrix(0.8025 -0.5967 0.5967 0.8025 -80.3935 86.7633)" class="st41" width="6.7" height="50.6"/>
					</g>
					<g>
						
							<rect x="90" y="150.9" transform="matrix(0.5589 -0.8292 0.8292 0.5589 -72.8896 171.4262)" class="st41" width="69.3" height="6.7"/>
					</g>
				</g>
			</g>
		</g>
	</g>
</g>
</svg>
