<svg xmlns="http://www.w3.org/2000/svg" xmlns:xlink="http://www.w3.org/1999/xlink" version="1.1" width="261" height="144"><defs/><g transform=" scale(0.5) translate(-422,-356)"><rect x="678" y="418" width="4" height="4" fill="#ffffff" stroke="none" pointer-events="none"/><rect x="818" y="438" width="4" height="4" fill="#ffffff" stroke="none" pointer-events="none"/><rect x="678" y="458" width="4" height="4" fill="#ffffff" stroke="none" pointer-events="none"/><path d="M 682 420 L 714 420" fill="none" stroke="#ffffff" stroke-width="4" stroke-linecap="square" stroke-miterlimit="10" pointer-events="none"/><path d="M 798 440 L 818 440" fill="none" stroke="#ffffff" stroke-width="4" stroke-linecap="square" stroke-miterlimit="10" pointer-events="none"/><path d="M 682 460 L 714 460" fill="none" stroke="#ffffff" stroke-width="4" stroke-linecap="square" stroke-miterlimit="10" pointer-events="none"/><path d="M 719.64 399.64 C 750.28 399.54 772.8 400 797.22 439.72 C 778.72 475.44 754.68 481.2 719.64 480.38" fill="#222222" stroke="#ffffff" stroke-width="3.28" stroke-linejoin="round" stroke-linecap="round" stroke-miterlimit="10" pointer-events="none"/><path d="M 710.16 399.82 C 722.64 426.24 723.9 453 710.16 480.18" fill="none" stroke="#ffffff" stroke-width="4" stroke-linejoin="round" stroke-linecap="round" stroke-miterlimit="10" pointer-events="none"/><path d="M 720 399.82 C 732.46 426.24 733.74 453 720 480.18" fill="none" stroke="#ffffff" stroke-width="4" stroke-linejoin="round" stroke-linecap="round" stroke-miterlimit="10" pointer-events="none"/><rect x="678" y="558" width="4" height="4" fill="#ffffff" stroke="none" pointer-events="none"/><rect x="678" y="598" width="4" height="4" fill="#ffffff" stroke="none" pointer-events="none"/><rect x="818" y="578" width="4" height="4" fill="#ffffff" stroke="none" pointer-events="none"/><path d="M 682 560 L 710 560" fill="none" stroke="#ffffff" stroke-width="4" stroke-linecap="square" stroke-miterlimit="10" pointer-events="none"/><path d="M 682 600 L 710 600" fill="none" stroke="#ffffff" stroke-width="4" stroke-linecap="square" stroke-miterlimit="10" pointer-events="none"/><path d="M 722.08 539.42 L 709.56 539.44 C 709.58 564.34 709.7 589.62 709.72 620.44 L 721.88 620.62 C 742.06 620.56 758.18 622 771.22 615.06 C 782.5 609.06 792.16 596.64 792.1 580.28 C 792.02 563.4 782.56 552.46 770.26 545.06 C 758.26 537.84 741.94 539.46 722.08 539.42 Z" fill="#222222" stroke="#ffffff" stroke-width="3.24" stroke-linejoin="round" stroke-linecap="round" stroke-miterlimit="10" pointer-events="none"/><path d="M 794 580 L 818 580" fill="none" stroke="#ffffff" stroke-width="4" stroke-linecap="square" stroke-miterlimit="10" pointer-events="none"/><path d="M 680 560 L 680 460" fill="none" stroke="#ffffff" stroke-width="4" stroke-miterlimit="10" pointer-events="none"/><path d="M 680 600 L 620 600 L 620 420 L 680 420" fill="none" stroke="#ffffff" stroke-width="4" stroke-miterlimit="10" pointer-events="none"/><rect x="458" y="398" width="4" height="4" fill="#ffffff" stroke="none" pointer-events="none"/><ellipse cx="460" cy="380" rx="8.27" ry="8.27" fill="#222222" stroke="#ffffff" stroke-width="4" pointer-events="none"/><path d="M 460 390 L 460 398" fill="#222222" stroke="#ffffff" stroke-width="4" stroke-linecap="square" stroke-miterlimit="10" pointer-events="none"/><rect x="426" y="360" width="16" height="28" fill-opacity="0" fill="#dae2f2" stroke="none" pointer-events="none"/><g fill="#ffffff" font-family="Arial,Helvetica" font-weight="bold" text-anchor="middle" font-size="24px"><text x="434" y="382">A</text></g><rect x="458" y="538" width="4" height="4" fill="#ffffff" stroke="none" pointer-events="none"/><ellipse cx="460" cy="520" rx="8.27" ry="8.27" fill="#222222" stroke="#ffffff" stroke-width="4" pointer-events="none"/><path d="M 460 530 L 460 538" fill="#222222" stroke="#ffffff" stroke-width="4" stroke-linecap="square" stroke-miterlimit="10" pointer-events="none"/><rect x="426" y="526" width="16" height="28" fill-opacity="0" fill="#dae2f2" stroke="none" pointer-events="none"/><g fill="#ffffff" font-family="Arial,Helvetica" font-weight="bold" text-anchor="middle" font-size="24px"><text x="434" y="548">B</text></g><path d="M 460 540 L 460 560 L 680 560" fill="none" stroke="#ffffff" stroke-width="4" stroke-miterlimit="10" pointer-events="none"/><path d="M 460 400 L 460 420 L 616 420" fill="none" stroke="#ffffff" stroke-width="4" stroke-miterlimit="10" pointer-events="none"/><ellipse cx="620" cy="420" rx="4" ry="4" fill="#ffffff" stroke="#ffffff" stroke-width="4" pointer-events="none"/><rect x="918" y="418" width="4" height="4" fill="#ffffff" stroke="none" pointer-events="none"/><ellipse cx="920" cy="400" rx="8.27" ry="8.27" fill="#222222" stroke="#ffffff" stroke-width="4" pointer-events="none"/><path d="M 920 410 L 920 418" fill="#222222" stroke="#ffffff" stroke-width="4" stroke-linecap="square" stroke-miterlimit="10" pointer-events="none"/><rect x="886" y="380" width="16" height="28" fill-opacity="0" fill="#dae2f2" stroke="none" pointer-events="none"/><g fill="#ffffff" font-family="Arial,Helvetica" font-weight="bold" text-anchor="middle" font-size="24px"><text x="894" y="402">S</text></g><rect x="918" y="558" width="4" height="4" fill="#ffffff" stroke="none" pointer-events="none"/><ellipse cx="920" cy="540" rx="8.27" ry="8.27" fill="#222222" stroke="#ffffff" stroke-width="4" pointer-events="none"/><path d="M 920 550 L 920 558" fill="#222222" stroke="#ffffff" stroke-width="4" stroke-linecap="square" stroke-miterlimit="10" pointer-events="none"/><rect x="884" y="546" width="18" height="28" fill-opacity="0" fill="#dae2f2" stroke="none" pointer-events="none"/><g fill="#ffffff" font-family="Arial,Helvetica" font-weight="bold" text-anchor="middle" font-size="24px"><text x="893" y="568">C</text></g><path d="M 920 420 L 920 440 L 820 440" fill="none" stroke="#ffffff" stroke-width="4" stroke-miterlimit="10" pointer-events="none"/><path d="M 920 560 L 920 580 L 820 580" fill="none" stroke="#ffffff" stroke-width="4" stroke-miterlimit="10" pointer-events="none"/></g></svg>