<svg xmlns="http://www.w3.org/2000/svg" xmlns:xlink="http://www.w3.org/1999/xlink" version="1.1" width="276" height="134"><defs/><g transform=" scale(0.5) translate(-422,-296)"><rect x="738" y="358" width="4" height="4" fill="#000000" stroke="none" pointer-events="none"/><rect x="598" y="338" width="4" height="4" fill="#000000" stroke="none" pointer-events="none"/><rect x="598" y="378" width="4" height="4" fill="#000000" stroke="none" pointer-events="none"/><ellipse cx="721" cy="360" rx="4.96" ry="4.96" fill="#ffffff" stroke="#000000" stroke-width="4" pointer-events="none"/><path d="M 728 360 L 738 360" fill="none" stroke="#000000" stroke-width="4" stroke-linecap="square" stroke-miterlimit="10" pointer-events="none"/><path d="M 602 340 L 634 340" fill="none" stroke="#000000" stroke-width="4" stroke-linecap="square" stroke-miterlimit="10" pointer-events="none"/><path d="M 602 380 L 634 380" fill="none" stroke="#000000" stroke-width="4" stroke-linecap="square" stroke-miterlimit="10" pointer-events="none"/><path d="M 639.64 319.64 C 670.28 319.54 692.8 320 717.22 359.72 C 698.72 395.44 674.68 401.2 639.64 400.38" fill="#ffffff" stroke="#000000" stroke-width="3.28" stroke-linejoin="round" stroke-linecap="round" stroke-miterlimit="10" pointer-events="none"/><path d="M 630.16 319.82 C 642.64 346.24 643.9 373 630.16 400.18" fill="none" stroke="#000000" stroke-width="4" stroke-linejoin="round" stroke-linecap="round" stroke-miterlimit="10" pointer-events="none"/><path d="M 640 319.82 C 652.46 346.24 653.74 373 640 400.18" fill="none" stroke="#000000" stroke-width="4" stroke-linejoin="round" stroke-linecap="round" stroke-miterlimit="10" pointer-events="none"/><rect x="598" y="478" width="4" height="4" fill="#000000" stroke="none" pointer-events="none"/><rect x="598" y="518" width="4" height="4" fill="#000000" stroke="none" pointer-events="none"/><rect x="738" y="498" width="4" height="4" fill="#000000" stroke="none" pointer-events="none"/><path d="M 602 480 L 630 480" fill="none" stroke="#000000" stroke-width="4" stroke-linecap="square" stroke-miterlimit="10" pointer-events="none"/><path d="M 602 520 L 630 520" fill="none" stroke="#000000" stroke-width="4" stroke-linecap="square" stroke-miterlimit="10" pointer-events="none"/><path d="M 642.08 459.42 L 629.56 459.44 C 629.58 484.34 629.7 509.62 629.72 540.44 L 641.88 540.62 C 662.06 540.56 678.18 542 691.22 535.06 C 702.5 529.06 712.16 516.64 712.1 500.28 C 712.02 483.4 702.56 472.46 690.26 465.06 C 678.26 457.84 661.94 459.46 642.08 459.42 Z" fill="#ffffff" stroke="#000000" stroke-width="3.24" stroke-linejoin="round" stroke-linecap="round" stroke-miterlimit="10" pointer-events="none"/><path d="M 714 500 L 738 500" fill="none" stroke="#000000" stroke-width="4" stroke-linecap="square" stroke-miterlimit="10" pointer-events="none"/><rect x="458" y="338" width="4" height="4" fill="#000000" stroke="none" pointer-events="none"/><ellipse cx="460" cy="320" rx="8.27" ry="8.27" fill="#ffffff" stroke="#000000" stroke-width="4" pointer-events="none"/><path d="M 460 330 L 460 338" fill="#ffffff" stroke="#000000" stroke-width="4" stroke-linecap="square" stroke-miterlimit="10" pointer-events="none"/><rect x="426" y="326" width="14" height="26" fill-opacity="0" fill="#dae2f2" stroke="none" pointer-events="none"/><g fill="#000000" font-family="Arial,Helvetica" font-weight="bold" text-anchor="middle" font-size="24px"><text x="433" y="347">A</text></g><rect x="458" y="378" width="4" height="4" fill="#000000" stroke="none" pointer-events="none"/><ellipse cx="460" cy="360" rx="8.27" ry="8.27" fill="#ffffff" stroke="#000000" stroke-width="4" pointer-events="none"/><path d="M 460 370 L 460 378" fill="#ffffff" stroke="#000000" stroke-width="4" stroke-linecap="square" stroke-miterlimit="10" pointer-events="none"/><rect x="426" y="366" width="16" height="28" fill-opacity="0" fill="#dae2f2" stroke="none" pointer-events="none"/><g fill="#000000" font-family="Arial,Helvetica" font-weight="bold" text-anchor="middle" font-size="24px"><text x="434" y="388">B</text></g><rect x="898" y="338" width="4" height="4" fill="#000000" stroke="none" pointer-events="none"/><ellipse cx="900" cy="320" rx="8.27" ry="8.27" fill="#ffffff" stroke="#000000" stroke-width="4" pointer-events="none"/><path d="M 900 330 L 900 338" fill="#ffffff" stroke="#000000" stroke-width="4" stroke-linecap="square" stroke-miterlimit="10" pointer-events="none"/><rect x="920" y="320" width="14" height="26" fill-opacity="0" fill="#dae2f2" stroke="none" pointer-events="none"/><g fill="#000000" font-family="Arial,Helvetica" font-weight="bold" text-anchor="middle" font-size="24px"><text x="927" y="341">S</text></g><rect x="898" y="478" width="4" height="4" fill="#000000" stroke="none" pointer-events="none"/><ellipse cx="900" cy="460" rx="8.27" ry="8.27" fill="#ffffff" stroke="#000000" stroke-width="4" pointer-events="none"/><path d="M 900 470 L 900 478" fill="#ffffff" stroke="#000000" stroke-width="4" stroke-linecap="square" stroke-miterlimit="10" pointer-events="none"/><rect x="920" y="460" width="50" height="28" fill-opacity="0" fill="#dae2f2" stroke="none" pointer-events="none"/><g fill="#000000" font-family="Arial,Helvetica" font-weight="bold" text-anchor="middle" font-size="24px"><text x="945" y="482">Cout</text></g><path d="M 460 340 L 600 340" fill="none" stroke="#000000" stroke-width="4" stroke-miterlimit="10" pointer-events="none"/><path d="M 460 380 L 600 380" fill="none" stroke="#000000" stroke-width="4" stroke-miterlimit="10" pointer-events="none"/><path d="M 600 480 L 600 340" fill="none" stroke="#000000" stroke-width="4" stroke-miterlimit="10" pointer-events="none"/><path d="M 600 520 L 560 520 L 560 384" fill="none" stroke="#000000" stroke-width="4" stroke-miterlimit="10" pointer-events="none"/><ellipse cx="560" cy="380" rx="4" ry="4" fill="#000000" stroke="#000000" stroke-width="4" pointer-events="none"/><path d="M 740 360 L 900 360 L 900 340" fill="none" stroke="#000000" stroke-width="4" stroke-miterlimit="10" pointer-events="none"/><path d="M 740 500 L 900 500 L 900 480" fill="none" stroke="#000000" stroke-width="4" stroke-miterlimit="10" pointer-events="none"/></g></svg>